<svg width="35" height="28" viewBox="0 0 35 28" fill="none" xmlns="http://www.w3.org/2000/svg">
<path d="M15.2542 22.855C15.2571 23.2247 15.1227 23.5867 14.868 23.8952C14.6134 24.2037 14.25 24.4448 13.8239 24.5879C13.3978 24.7309 12.9282 24.7696 12.4746 24.6989C12.021 24.6282 11.6039 24.4513 11.2761 24.1907C10.9484 23.9301 10.7247 23.5976 10.6335 23.2351C10.5422 22.8727 10.5876 22.4968 10.7638 22.155C10.9399 21.8133 11.239 21.5211 11.623 21.3154C12.007 21.1098 12.4587 21 12.9208 21C13.5372 21 14.1284 21.1951 14.5656 21.5426C15.0028 21.8902 15.2503 22.362 15.2542 22.855ZM24.8646 21C24.4031 21 23.952 21.1095 23.5683 21.3146C23.1845 21.5197 22.8855 21.8112 22.7089 22.1523C22.5323 22.4934 22.4861 22.8687 22.5761 23.2308C22.6661 23.5929 22.8883 23.9255 23.2147 24.1866C23.541 24.4477 23.9568 24.6254 24.4094 24.6975C24.862 24.7695 25.3312 24.7325 25.7575 24.5912C26.1839 24.45 26.5483 24.2107 26.8047 23.9037C27.0611 23.5968 27.1979 23.2359 27.1979 22.8667C27.1979 22.3716 26.9521 21.8968 26.5145 21.5467C26.0769 21.1967 25.4834 21 24.8646 21ZM28.7583 8.16667C28.5716 8.12828 28.3772 8.1199 28.1863 8.14202C27.9955 8.16413 27.8121 8.2163 27.6466 8.2955C27.4811 8.3747 27.337 8.47937 27.2224 8.60345C27.1078 8.72752 27.0252 8.86854 26.9792 9.01834L24.6167 16.5783C24.5368 16.8372 24.3486 17.0664 24.0832 17.2277C23.8179 17.389 23.4915 17.4728 23.1583 17.465H14.5833C14.2502 17.4728 13.9238 17.389 13.6585 17.2277C13.3931 17.0664 13.2048 16.8372 13.125 16.5783L9.39167 4.38667C9.31182 4.12782 9.12356 3.89865 8.85822 3.73732C8.59288 3.576 8.26647 3.49224 7.93333 3.50001H4.52083C4.13406 3.50001 3.76313 3.62292 3.48964 3.84172C3.21615 4.06051 3.0625 4.35725 3.0625 4.66667C3.0625 4.97609 3.21615 5.27284 3.48964 5.49163C3.76313 5.71042 4.13406 5.83334 4.52083 5.83334H6.83958L10.3833 17.185C10.6187 17.9359 11.1587 18.6031 11.9187 19.0823C12.6786 19.5615 13.6157 19.8256 14.5833 19.8333H23.1583C24.1335 19.8334 25.0806 19.5728 25.8495 19.093C26.6184 18.6132 27.1648 17.9416 27.4021 17.185L29.7646 9.61334C29.8179 9.46549 29.8342 9.31067 29.8124 9.15777C29.7907 9.00488 29.7313 8.85694 29.6378 8.72248C29.5443 8.58801 29.4184 8.46968 29.2675 8.37429C29.1165 8.2789 28.9435 8.20834 28.7583 8.16667ZM15.6333 11.6667H17.5V13.125C17.5 13.4344 17.6536 13.7312 17.9271 13.95C18.2006 14.1688 18.5716 14.2917 18.9583 14.2917C19.3451 14.2917 19.716 14.1688 19.9895 13.95C20.263 13.7312 20.4167 13.4344 20.4167 13.125V11.6667H22.2542C22.6409 11.6667 23.0119 11.5438 23.2854 11.325C23.5589 11.1062 23.7125 10.8094 23.7125 10.5C23.7125 10.1906 23.5589 9.89384 23.2854 9.67505C23.0119 9.45625 22.6409 9.33334 22.2542 9.33334H20.4167V7.87501C20.4167 7.56559 20.263 7.26884 19.9895 7.05005C19.716 6.83126 19.3451 6.70834 18.9583 6.70834C18.5716 6.70834 18.2006 6.83126 17.9271 7.05005C17.6536 7.26884 17.5 7.56559 17.5 7.87501V9.33334H15.6917C15.3049 9.33334 14.934 9.45625 14.6605 9.67505C14.387 9.89384 14.2333 10.1906 14.2333 10.5C14.2333 10.8094 14.387 11.1062 14.6605 11.325C14.934 11.5438 15.3049 11.6667 15.6917 11.6667H15.6333Z" fill="white"/>
</svg>
