<svg width="48" height="44" viewBox="0 0 48 44" fill="none" xmlns="http://www.w3.org/2000/svg">
<path d="M29.75 27.75C31.5402 27.75 33.2571 27.0388 34.523 25.773C35.7888 24.5071 36.5 22.7902 36.5 21V7.5C36.5 5.70979 35.7888 3.9929 34.523 2.72703C33.2571 1.46116 31.5402 0.75 29.75 0.75H7.25C5.45979 0.75 3.7429 1.46116 2.47703 2.72703C1.21116 3.9929 0.5 5.70979 0.5 7.5V21C0.5 22.7902 1.21116 24.5071 2.47703 25.773C3.7429 27.0388 5.45979 27.75 7.25 27.75H9.5V32.25C9.49215 32.6481 9.59007 33.0411 9.78376 33.3889C9.97745 33.7368 10.26 34.027 10.6025 34.23C10.9445 34.4275 11.3325 34.5314 11.7275 34.5314C12.1225 34.5314 12.5105 34.4275 12.8525 34.23L23.6075 27.75H29.75ZM14 28.245V25.5C14.0047 25.2001 13.9494 24.9023 13.8373 24.6241C13.7253 24.3459 13.5587 24.0929 13.3475 23.88C12.9192 23.4671 12.3448 23.2405 11.75 23.25H7.25C6.65326 23.25 6.08097 23.0129 5.65901 22.591C5.23705 22.169 5 21.5967 5 21V7.5C5 6.90326 5.23705 6.33097 5.65901 5.90901C6.08097 5.48705 6.65326 5.25 7.25 5.25H29.75C30.3467 5.25 30.919 5.48705 31.341 5.90901C31.7629 6.33097 32 6.90326 32 7.5V21C32 21.5967 31.7629 22.169 31.341 22.591C30.919 23.0129 30.3467 23.25 29.75 23.25H23C22.5962 23.2501 22.1998 23.3589 21.8525 23.565L14 28.245ZM47.75 21V30C47.75 31.7902 47.0388 33.5071 45.773 34.773C44.5071 36.0388 42.7902 36.75 41 36.75H38.75V41.25C38.75 41.6679 38.6336 42.0774 38.414 42.4329C38.1943 42.7883 37.88 43.0756 37.5062 43.2625C37.1325 43.4493 36.7141 43.5284 36.2979 43.4909C35.8818 43.4534 35.4843 43.3007 35.15 43.05L26.7575 36.75H23C22.4033 36.75 21.831 36.5129 21.409 36.091C20.9871 35.669 20.75 35.0967 20.75 34.5C20.75 33.9033 20.9871 33.331 21.409 32.909C21.831 32.4871 22.4033 32.25 23 32.25H27.5C27.7767 32.2588 28.0502 32.312 28.31 32.4075L28.535 32.5425L28.85 32.7L34.25 36.75V34.5C34.25 33.9033 34.487 33.331 34.909 32.909C35.331 32.4871 35.9033 32.25 36.5 32.25H41C41.5967 32.25 42.169 32.0129 42.591 31.591C43.0129 31.169 43.25 30.5967 43.25 30V21C43.25 20.4033 43.0129 19.831 42.591 19.409C42.169 18.9871 41.5967 18.75 41 18.75C40.4033 18.75 39.831 18.5129 39.409 18.091C38.987 17.669 38.75 17.0967 38.75 16.5C38.75 15.9033 38.987 15.331 39.409 14.909C39.831 14.4871 40.4033 14.25 41 14.25C42.7902 14.25 44.5071 14.9612 45.773 16.227C47.0388 17.4929 47.75 19.2098 47.75 21Z" fill="white"/>
</svg>
