<svg width="72" height="69" viewBox="0 0 72 69" fill="none" xmlns="http://www.w3.org/2000/svg">
<path d="M36 0.0725098C28.9128 0.0725098 21.9848 2.07635 16.0921 5.83063C10.1993 9.58491 5.60646 14.921 2.89432 21.1642C0.182175 27.4073 -0.527445 34.2771 0.855192 40.9048C2.23783 47.5324 5.65062 53.6203 10.662 58.3986C15.6734 63.1769 22.0583 66.431 29.0093 67.7493C35.9602 69.0677 43.1651 68.391 49.7128 65.805C56.2605 63.2191 61.8569 58.8398 65.7943 53.2211C69.7317 47.6025 71.8333 40.9967 71.8333 34.2392C71.8333 25.1776 68.058 16.4872 61.338 10.0797C54.6179 3.6722 45.5036 0.0725098 36 0.0725098ZM64.3083 38.4075C63.6145 37.9806 62.9769 37.4759 62.4092 36.9042C62.0293 36.513 61.7041 36.0766 61.4417 35.6058C61.2691 35.3127 61.1709 34.985 61.155 34.6492V34.205C61.3057 33.7495 61.6238 33.3613 62.0508 33.1117C62.8538 32.6686 63.7446 32.3894 64.6667 32.2917C64.6667 32.9408 64.6667 33.6242 64.6667 34.2733C64.6553 35.658 64.5355 37.0399 64.3083 38.4075ZM38.0425 7.00834C38.4502 7.44353 38.7993 7.9256 39.0817 8.44334C39.5836 9.5185 39.8401 10.6831 39.8342 11.86C39.8484 12.5616 39.7144 13.2588 39.44 13.91C39.2287 14.4086 38.8825 14.8448 38.4367 15.1742C37.7542 15.5989 37.0203 15.9431 36.2508 16.1992C34.3308 16.8703 32.473 17.6932 30.6967 18.6592C29.6273 19.2837 28.6911 20.0951 27.9375 21.0508C27.0893 22.1353 26.58 23.4264 26.4683 24.775V25.2875C26.4258 26.7877 26.9185 28.2573 27.8658 29.4558C29.0839 30.8553 30.7642 31.819 32.6317 32.1892C33.9729 32.4901 35.3403 32.6731 36.7167 32.7358C37.1404 32.751 37.5507 32.8814 37.8992 33.1117C37.8992 33.1117 38.0783 33.1117 38.15 33.7608V34.3075C38.1086 35.2554 37.9522 36.1955 37.6842 37.1092C37.3975 38.2025 37.0033 39.4667 36.7167 40.8675C36.4699 42.2213 36.35 43.5934 36.3583 44.9675C36.3554 46.4367 36.5115 47.9022 36.8242 49.3408C36.8746 49.7951 36.8746 50.2532 36.8242 50.7075V51.2542L36.5017 51.0833C35.8444 50.6911 35.2626 50.1942 34.7817 49.6142C34.1122 48.8522 33.4901 48.0536 32.9183 47.2225C32.4883 46.71 32.0225 45.9242 31.4133 45.0358C30.7572 43.9879 29.9353 43.0429 28.9767 42.2342C27.5497 41.1569 25.937 40.3245 24.2108 39.7742C22.9906 39.3826 21.7943 38.9263 20.6275 38.4075C20.0638 38.1543 19.5441 37.8201 19.0867 37.4167C18.7642 37.1433 18.6567 37.0067 18.6208 36.9042V36.4258C18.6345 35.8297 18.7557 35.2402 18.9792 34.6833C19.148 34.2117 19.4027 33.7722 19.7317 33.385C20.3408 32.7017 21.0575 32.155 21.9533 31.1642C22.9787 30.0139 23.6924 28.6412 24.0317 27.1667C24.3019 26.1042 24.4342 25.0141 24.4258 23.9208C24.4121 20.6106 23.1389 17.4177 20.8425 14.935C20.0273 14.123 19.0989 13.4217 18.0833 12.8508C23.1592 8.96084 29.4879 6.8609 36 6.90584L38.0425 7.00834ZM56.2817 53.5775C51.114 58.3476 44.2545 61.0912 37.0642 61.2639C29.8739 61.4366 22.8783 59.0257 17.4653 54.5097C12.0523 49.9936 8.61761 43.7024 7.84264 36.8843C7.06767 30.0662 9.00908 23.2194 13.2817 17.7025C14.2775 17.9678 15.1649 18.516 15.8258 19.2742C17.0242 20.55 17.6764 22.2083 17.6533 23.9208C17.6487 24.5187 17.5766 25.1143 17.4383 25.6975C17.3448 26.2135 17.1099 26.6967 16.7575 27.0983C16.3992 27.5083 15.6467 28.1233 14.6792 29.1483C13.7553 30.1443 13.0488 31.3058 12.6008 32.565C12.0853 33.8407 11.8181 35.1954 11.8125 36.5625C11.8076 37.4307 11.9405 38.2947 12.2067 39.125C12.7095 40.4562 13.5753 41.6356 14.715 42.5417C15.5808 43.2301 16.5314 43.8152 17.5458 44.2842C19.1583 45.0358 20.6633 45.48 21.8817 45.9242C22.8593 46.2244 23.7791 46.6745 24.605 47.2567C25.056 47.6685 25.4422 48.1404 25.7517 48.6575C26.2175 49.3067 26.7192 50.1608 27.4 51.0492C28.3514 52.4456 29.4436 53.7501 30.6608 54.9442C31.4338 55.6963 32.3145 56.3405 33.2767 56.8575C34.3728 57.4469 35.6022 57.7751 36.86 57.8142C37.926 57.8271 38.9806 57.605 39.9417 57.165C41.2966 56.514 42.3638 55.4237 42.9517 54.09C43.4377 53.0122 43.6701 51.846 43.6325 50.6733C43.6217 49.7429 43.5136 48.8158 43.31 47.9058C43.0908 46.9289 42.9827 45.9323 42.9875 44.9333C42.9805 43.9488 43.0645 42.9655 43.2383 41.995C43.4175 41.0383 43.7758 39.945 44.0983 38.5783C44.5287 37.156 44.7577 35.6852 44.7792 34.205C44.8148 33.7843 44.8148 33.3615 44.7792 32.9408C44.6127 31.0482 43.6734 29.2936 42.1633 28.055C40.7514 26.9452 39.0086 26.2876 37.1825 26.1758C35.9657 26.1404 34.7599 25.945 33.5992 25.595L33.2767 25.4242V25.0825C33.2767 24.7408 33.2767 24.7408 33.635 24.3992C34.701 23.5964 35.9169 22.9935 37.2183 22.6225C39.0626 22.0599 40.8307 21.2915 42.4858 20.3333C43.9139 19.3117 45.0277 17.9428 45.7108 16.37C46.3872 14.8933 46.7408 13.3006 46.75 11.6892C46.7391 10.7004 46.619 9.71557 46.3917 8.75084C50.3854 10.2077 53.9868 12.498 56.9319 15.4539C59.877 18.4098 62.0913 21.9565 63.4125 25.8342C61.7059 26.1419 60.0764 26.7564 58.6108 27.645C56.854 28.7481 55.5798 30.4247 55.0275 32.36C54.7835 33.0771 54.6625 33.827 54.6692 34.5808C54.6842 35.8988 55.0151 37.196 55.6367 38.3733C56.4589 39.9225 57.6052 41.2946 59.005 42.405C60.1063 43.3418 61.3072 44.1663 62.5883 44.865C61.0913 48.1278 58.9502 51.0857 56.2817 53.5775Z" fill="#D7A23F"/>
</svg>
