<svg width="72" height="76" viewBox="0 0 72 76" fill="none" xmlns="http://www.w3.org/2000/svg">
<path d="M36 0.5C28.9128 0.5 21.9848 2.69934 16.0921 6.81989C10.1993 10.9404 5.60646 16.7971 2.89432 23.6494C0.182183 30.5016 -0.527437 38.0416 0.8552 45.3159C2.23784 52.5902 5.65063 59.272 10.662 64.5165C15.6734 69.761 22.0583 73.3325 29.0093 74.7794C35.9603 76.2264 43.1651 75.4838 49.7128 72.6455C56.2605 69.8072 61.8569 65.0007 65.7943 58.8339C69.7318 52.667 71.8333 45.4168 71.8333 38C71.8333 33.0754 70.9065 28.1991 69.1057 23.6494C67.3049 19.0997 64.6654 14.9657 61.338 11.4835C58.0106 8.0013 54.0603 5.23907 49.7128 3.35452C45.3653 1.46997 40.7057 0.5 36 0.5ZM36 68C30.3303 68 24.7879 66.2405 20.0737 62.9441C15.3595 59.6476 11.6852 54.9623 9.51546 49.4805C7.34575 43.9987 6.77805 37.9667 7.88416 32.1473C8.99027 26.3279 11.7205 20.9824 15.7296 16.7868C19.7387 12.5912 24.8466 9.734 30.4074 8.57644C35.9682 7.41889 41.7321 8.01299 46.9703 10.2836C52.2084 12.5542 56.6855 16.3994 59.8355 21.3329C62.9854 26.2664 64.6667 32.0666 64.6667 38C64.6667 45.9565 61.6465 53.5871 56.2704 59.2132C50.8944 64.8393 43.6029 68 36 68ZM19.875 30.5C19.875 29.3875 20.1902 28.2999 20.7809 27.3749C21.3715 26.4499 22.2109 25.7289 23.1931 25.3032C24.1752 24.8774 25.256 24.766 26.2986 24.9831C27.3413 25.2001 28.299 25.7359 29.0507 26.5225C29.8024 27.3092 30.3143 28.3115 30.5217 29.4026C30.7291 30.4938 30.6227 31.6248 30.2159 32.6526C29.809 33.6804 29.1201 34.5589 28.2362 35.177C27.3523 35.7951 26.3131 36.125 25.25 36.125C23.8245 36.125 22.4573 35.5324 21.4493 34.4775C20.4413 33.4226 19.875 31.9918 19.875 30.5ZM52.125 30.5C52.125 31.6125 51.8098 32.7001 51.2192 33.6251C50.6285 34.5501 49.7891 35.2711 48.8069 35.6968C47.8248 36.1226 46.744 36.234 45.7014 36.0169C44.6588 35.7999 43.701 35.2641 42.9493 34.4775C42.1976 33.6908 41.6857 32.6885 41.4783 31.5974C41.2709 30.5062 41.3773 29.3752 41.7842 28.3474C42.191 27.3196 42.8799 26.4411 43.7638 25.823C44.6477 25.2049 45.6869 24.875 46.75 24.875C48.1756 24.875 49.5427 25.4676 50.5507 26.5225C51.5587 27.5774 52.125 29.0082 52.125 30.5ZM49.3658 43.2125C49.7251 43.4523 50.0353 43.7643 50.2786 44.1304C50.5219 44.4964 50.6935 44.9093 50.7835 45.3451C50.8735 45.781 50.88 46.2312 50.8027 46.6697C50.7255 47.1082 50.5659 47.5264 50.3333 47.9C48.7672 50.3441 46.6502 52.347 44.1692 53.7321C41.6882 55.1171 38.9195 55.8416 36.1075 55.8416C33.2956 55.8416 30.5269 55.1171 28.0458 53.7321C25.5648 52.347 23.4478 50.3441 21.8817 47.9C21.644 47.5331 21.4778 47.1208 21.3924 46.6867C21.307 46.2526 21.3041 45.8051 21.384 45.3698C21.4638 44.9346 21.6248 44.52 21.8578 44.1499C22.0907 43.7797 22.3911 43.4612 22.7417 43.2125C23.0928 42.9606 23.4886 42.7849 23.9057 42.6956C24.3228 42.6063 24.7527 42.6053 25.1702 42.6927C25.5876 42.7801 25.9841 42.954 26.3363 43.2043C26.6885 43.4546 26.9893 43.7761 27.2208 44.15C28.2014 45.6971 29.5326 46.9661 31.0957 47.844C32.6588 48.7219 34.4052 49.1813 36.1792 49.1813C37.9531 49.1813 39.6995 48.7219 41.2626 47.844C42.8257 46.9661 44.1569 45.6971 45.1375 44.15C45.6011 43.4667 46.2934 42.991 47.0768 42.8173C47.8601 42.6436 48.6773 42.7847 49.3658 43.2125Z" fill="#D7A23F"/>
</svg>
