<svg width="61" height="67" viewBox="0 0 61 67" fill="none" xmlns="http://www.w3.org/2000/svg">
<path d="M60.4337 36.5284C60.4256 34.7078 60.041 32.9096 59.3054 31.2528C58.5699 29.5959 57.5001 28.118 56.1667 26.9167C56.1645 23.023 55.3208 19.1782 53.6962 15.6592C51.6161 11.1533 48.3319 7.34592 44.2255 4.67973C40.1192 2.01354 35.3595 0.598145 30.5 0.598145C25.6405 0.598145 20.8808 2.01354 16.7744 4.67973C12.6681 7.34592 9.38391 11.1533 7.30374 15.6592C5.68421 19.18 4.84074 23.0236 4.83332 26.9167L4.12749 27.5421C1.81428 30.1288 0.530884 33.5116 0.530884 37.0221C0.530884 40.5326 1.81428 43.9154 4.12749 46.5021C5.2698 47.7698 6.65372 48.7834 8.19348 49.4798C9.73324 50.1763 11.396 50.5408 13.0787 50.5509H14.4583C14.8806 50.5534 15.2991 50.4703 15.69 50.3065C16.0809 50.1427 16.4365 49.9014 16.7362 49.5963C17.3062 49.0077 17.6385 48.22 17.6667 47.3909V26.9167C17.6667 26.0437 17.3286 25.2065 16.727 24.5892C16.1253 23.9718 15.3092 23.625 14.4583 23.625H13.1108C12.5734 23.6472 12.0377 23.7022 11.5067 23.7896C11.787 21.9419 12.3274 20.1456 13.1108 18.4571C14.6728 15.0822 17.1357 12.2311 20.2137 10.2347C23.2917 8.23837 26.8585 7.17868 30.5 7.17868C34.1415 7.17868 37.7082 8.23837 40.7862 10.2347C43.8642 12.2311 46.3272 15.0822 47.8892 18.4571C48.6726 20.1456 49.2129 21.9419 49.4933 23.7896C48.9623 23.7022 48.4266 23.6472 47.8892 23.625H46.5417C45.6908 23.625 44.8747 23.9718 44.273 24.5892C43.6713 25.2065 43.3333 26.0437 43.3333 26.9167V46.1071C43.3309 46.5403 43.4118 46.9698 43.5715 47.3708C43.7311 47.7719 43.9664 48.1366 44.2637 48.4442C44.5635 48.7493 44.9191 48.9907 45.31 49.1545C45.7009 49.3183 46.1194 49.4013 46.5417 49.3988H47.8892C48.5135 49.3836 49.1358 49.3175 49.75 49.2013V56.5417C49.75 57.4147 49.412 58.252 48.8103 58.8693C48.2086 59.4866 47.3926 59.8334 46.5417 59.8334H43.3333C43.436 59.291 43.4897 58.74 43.4937 58.1875C43.4939 57.0929 43.2813 56.0092 42.8682 54.9999C42.4551 53.9906 41.8499 53.076 41.0881 52.3097C40.3262 51.5433 39.4229 50.9406 38.4312 50.5369C37.4395 50.1332 36.3792 49.9365 35.3125 49.9584H28.8958C26.7686 49.9584 24.7284 50.8254 23.2242 52.3686C21.72 53.9119 20.875 56.005 20.875 58.1875C20.875 60.37 21.72 62.4632 23.2242 64.0064C24.7284 65.5497 26.7686 66.4167 28.8958 66.4167H46.5417C49.0944 66.4167 51.5425 65.3763 53.3476 63.5244C55.1526 61.6725 56.1667 59.1607 56.1667 56.5417V46.6667C56.1817 46.5135 56.1817 46.3591 56.1667 46.2059C57.5147 45.0028 58.5938 43.5153 59.3302 41.8452C60.0666 40.175 60.443 38.3615 60.4337 36.5284ZM6.9829 37.1538C6.96547 35.3147 7.63076 33.5376 8.84374 32.1834C9.50984 31.4576 10.3346 30.9048 11.25 30.5705V43.7371C10.3424 43.4027 9.5199 42.8626 8.84374 42.1571C7.63147 40.7893 6.96693 39.0025 6.9829 37.1538ZM30.5 59.8334H28.8958C28.4704 59.8334 28.0623 59.66 27.7615 59.3513C27.4607 59.0427 27.2917 58.624 27.2917 58.1875C27.2917 57.751 27.4607 57.3324 27.7615 57.0238C28.0623 56.7151 28.4704 56.5417 28.8958 56.5417H35.3125C35.7379 56.5417 36.146 56.7151 36.4468 57.0238C36.7476 57.3324 36.9167 57.751 36.9167 58.1875C36.9167 58.624 36.7476 59.0427 36.4468 59.3513C36.146 59.66 35.7379 59.8334 35.3125 59.8334H30.5ZM49.75 42.4863V30.5375C50.9936 30.9326 52.0812 31.7257 52.8537 32.8007C53.6262 33.8758 54.0429 35.1763 54.0429 36.5119C54.0429 37.8475 53.6262 39.1481 52.8537 40.2231C52.0812 41.2982 50.9936 42.0913 49.75 42.4863Z" fill="#D7A23F"/>
</svg>
