<svg width="46" height="58" viewBox="0 0 46 58" fill="none" xmlns="http://www.w3.org/2000/svg">
<path d="M37.25 0.537964H9.33333C7.11214 0.537964 4.98193 1.41315 3.41131 2.971C1.8407 4.52885 0.958332 6.64175 0.958332 8.84488V52.0131C0.975954 52.747 1.14052 53.4702 1.44245 54.1404C1.74438 54.8107 2.17766 55.4147 2.71708 55.9174C3.75819 56.9155 5.14953 57.4735 6.5975 57.4735C8.04547 57.4735 9.43681 56.9155 10.4779 55.9174L22.9567 43.5678L23.2917 43.4293L23.6267 43.5678L36.1054 55.9174C36.8862 56.6872 37.8789 57.2109 38.9589 57.4227C40.0389 57.6344 41.1578 57.5248 42.1752 57.1076C43.1925 56.6903 44.0628 55.9841 44.6766 55.0777C45.2904 54.1712 45.6204 53.105 45.625 52.0131V8.84488C45.625 6.64175 44.7426 4.52885 43.172 2.971C41.6014 1.41315 39.4712 0.537964 37.25 0.537964ZM40.0417 52.0131L27.5908 39.6358C26.4428 38.5197 24.8993 37.8945 23.2917 37.8945C21.6841 37.8945 20.1406 38.5197 18.9925 39.6358L6.54167 51.9854V17.1518H40.0417V52.0131ZM40.0417 11.6138H6.54167V8.84488C6.54167 8.1105 6.83579 7.4062 7.35933 6.88692C7.88287 6.36764 8.59294 6.0759 9.33333 6.0759H37.25C37.9904 6.0759 38.7005 6.36764 39.224 6.88692C39.7475 7.4062 40.0417 8.1105 40.0417 8.84488V11.6138Z" fill="white"/>
</svg>
